<svg width="23" height="18" viewBox="0 0 23 18" fill="none" xmlns="http://www.w3.org/2000/svg">
<path fill-rule="evenodd" clip-rule="evenodd" d="M1.5 7.49953H3.75V13.4995H2.25C1.83579 13.4995 1.5 13.8353 1.5 14.2495C1.5 14.6637 1.83579 14.9995 2.25 14.9995H20.25C20.6642 14.9995 21 14.6637 21 14.2495C21 13.8353 20.6642 13.4995 20.25 13.4995H18.75V7.49953H21C21.3353 7.4992 21.6296 7.27634 21.7209 6.95371C21.8122 6.63107 21.6782 6.28705 21.3928 6.1111L11.6428 0.111097C11.4019 -0.0370309 11.0981 -0.0370309 10.8572 0.111097L1.10719 6.1111C0.821764 6.28705 0.687804 6.63107 0.779083 6.95371C0.870362 7.27634 1.1647 7.4992 1.5 7.49953ZM5.25 7.49953H8.25V13.4995H5.25V7.49953ZM12.75 7.49953V13.4995H9.75V7.49953H12.75ZM17.25 13.4995H14.25V7.49953H17.25V13.4995ZM11.25 1.62985L18.3506 5.99953H4.14937L11.25 1.62985ZM22.5 17.2495C22.5 17.6637 22.1642 17.9995 21.75 17.9995H0.75C0.335786 17.9995 0 17.6637 0 17.2495C0 16.8353 0.335786 16.4995 0.75 16.4995H21.75C22.1642 16.4995 22.5 16.8353 22.5 17.2495Z" fill="white"/>
</svg>
