<svg width="20" height="20" viewBox="0 0 20 20" fill="none" xmlns="http://www.w3.org/2000/svg">
<path d="M16.0706 13.0481C15.7655 13.1201 15.3175 13.1282 14.8371 13.0725C14.3216 13.0128 13.7958 12.8869 13.2789 12.7015C14.2006 12.5944 14.9156 12.6274 15.5271 12.8005C15.672 12.8415 15.91 12.9511 16.0706 13.0481ZM10.9284 12.3729C10.8909 12.3811 10.8539 12.3888 10.8172 12.3969C10.5692 12.4508 10.3279 12.5035 10.0954 12.5503L9.78184 12.6138C9.15113 12.7412 8.50626 12.8714 7.86935 13.0265C8.11139 12.5603 8.33628 12.089 8.55647 11.6282C8.71951 11.2871 8.88598 10.9386 9.05815 10.5947C9.14549 10.7099 9.23665 10.8251 9.3315 10.9407C9.76362 11.4663 10.3068 11.9522 10.9284 12.3729ZM9.32405 7.1163C9.36493 7.6915 9.20954 8.24485 8.98158 8.7757C8.70079 8.1193 8.56994 7.39445 8.92098 6.80925C9.01101 6.65925 9.08476 6.57905 9.13259 6.5372C9.20647 6.6283 9.30364 6.8321 9.32405 7.1163ZM6.03134 14.4027C5.87358 14.6281 5.71253 14.8391 5.54748 15.0384C5.14916 15.5178 4.49773 16.031 4.16308 16.031C4.13014 16.031 4.09029 16.0268 4.03206 15.9777C3.99458 15.9463 3.98857 15.9238 3.99039 15.8931C4.00167 15.7168 4.29409 15.403 4.7177 15.1119C5.10219 14.8479 5.53677 14.6131 6.03134 14.4027ZM17.1362 13.073C17.0851 12.4859 15.8476 12.1093 15.8354 12.1058C15.357 11.9703 14.8373 11.9045 14.2466 11.9045C13.6143 11.9045 12.9327 11.9776 12.0572 12.141C11.2782 11.7 10.6053 11.1478 10.1026 10.5366C9.88058 10.2666 9.68098 9.99705 9.50699 9.73375C9.93173 8.9227 10.3142 8.05065 10.2447 7.07395C10.1887 6.2908 9.74647 5.76475 9.14512 5.76475C8.73259 5.76475 8.37741 6.00875 8.0886 6.49065C7.5734 7.34935 7.70882 8.4481 8.49092 9.7592C8.20925 10.2876 7.94755 10.8353 7.69423 11.3656C7.37906 12.0249 7.05432 12.7052 6.68831 13.3523C5.66187 13.6766 4.81863 14.0699 4.11588 14.5528C3.6555 14.8686 3.1005 15.3514 3.06882 15.8553C3.05336 16.0927 3.15526 16.3104 3.36234 16.4848C3.58233 16.6699 3.85872 16.7674 4.16263 16.7677C5.16636 16.7677 6.1324 15.6663 6.31566 15.4454C6.68449 15.0014 7.02971 14.5062 7.36798 13.9349C8.21996 13.689 9.1279 13.5055 10.0079 13.3281L10.3231 13.2641C10.56 13.216 10.8062 13.1628 11.0588 13.1076C11.3261 13.0499 11.601 12.9901 11.8805 12.9333C12.7842 13.3922 13.7559 13.6916 14.7036 13.8014C15.5019 13.8942 16.2108 13.8403 16.6907 13.6405C17.1225 13.4609 17.1463 13.1838 17.1362 13.073ZM19.0802 18.1214C19.0802 19.1966 17.8935 19.2629 17.6541 19.2651H2.34459C1.00313 19.2651 0.922356 18.3109 0.919796 18.1214L0.919614 1.87821C0.919614 0.80195 2.10841 0.7367 2.34441 0.73454H12.6863L12.6918 0.7389V3.96198C12.6918 4.60882 13.1815 5.83345 15.0359 5.83345H19.0456L19.08 5.8609L19.0802 18.1214ZM18.1296 5.0988H15.0365C13.6955 5.0988 13.6143 4.14985 13.6125 3.96209V1.47653L18.1296 5.0988ZM20 18.1214V5.55785L13.6125 0.435511V0.411678H13.582L13.069 0H2.34462C1.53361 0 0 0.392668 0 1.87856V18.1217C0 18.7713 0.490194 20 2.34462 20H17.6556C18.4664 19.9998 20 19.6072 20 18.1214Z" fill="#EB5757"/>
</svg>
