<svg width="24" height="18" viewBox="0 0 24 18" fill="none" xmlns="http://www.w3.org/2000/svg">
<path fill-rule="evenodd" clip-rule="evenodd" d="M18 7.875C18 8.49632 17.4963 9 16.875 9C16.2537 9 15.75 8.49632 15.75 7.875C15.75 7.25368 16.2537 6.75 16.875 6.75C17.4963 6.75 18 7.25368 18 7.875ZM14.25 3H10.5C10.0858 3 9.75 3.33579 9.75 3.75C9.75 4.16421 10.0858 4.5 10.5 4.5H14.25C14.6642 4.5 15 4.16421 15 3.75C15 3.33579 14.6642 3 14.25 3ZM23.25 7.5V10.5C23.25 11.7426 22.2426 12.75 21 12.75H20.7787L19.2591 17.0044C19.0459 17.6015 18.4803 18.0001 17.8463 18H16.6537C16.0197 18.0001 15.4541 17.6015 15.2409 17.0044L15.0609 16.5H9.68906L9.50906 17.0044C9.29587 17.6015 8.73028 18.0001 8.09625 18H6.90375C6.26972 18.0001 5.70413 17.6015 5.49094 17.0044L4.3125 13.7081C3.19142 12.4393 2.48945 10.8553 2.3025 9.1725C1.8092 9.4316 1.50017 9.94279 1.5 10.5C1.5 10.9142 1.16421 11.25 0.75 11.25C0.335786 11.25 0 10.9142 0 10.5C0.00235788 9.12383 0.940727 7.92575 2.27625 7.59375C2.62366 3.3081 6.20029 0.00545955 10.5 0H20.25C20.6642 0 21 0.335786 21 0.75C21 1.16421 20.6642 1.5 20.25 1.5H18.2447C19.4894 2.37328 20.4683 3.57378 21.0731 4.96875C21.1134 5.0625 21.1528 5.15625 21.1903 5.25C22.3581 5.34912 23.2542 6.32804 23.25 7.5ZM21.75 7.5C21.75 7.08579 21.4142 6.75 21 6.75H20.6569C20.329 6.75035 20.039 6.53773 19.9406 6.225C19.0587 3.41055 16.4494 1.49632 13.5 1.5H10.5C7.82339 1.49986 5.39955 3.08127 4.32143 5.53115C3.24331 7.98103 3.71461 10.8365 5.52281 12.81C5.59048 12.8836 5.64276 12.97 5.67656 13.0641L6.90375 16.5H8.09625L8.45438 15.4978C8.56091 15.1994 8.84347 15.0002 9.16031 15H15.5897C15.9065 15.0002 16.1891 15.1994 16.2956 15.4978L16.6537 16.5H17.8463L19.5441 11.7478C19.6506 11.4494 19.9332 11.2502 20.25 11.25H21C21.4142 11.25 21.75 10.9142 21.75 10.5V7.5Z" fill="white"/>
</svg>
